<svg width="640" height="320" version="1.1" xmlns="http://www.w3.org/2000/svg" xmlns:xlink="http://www.w3.org/1999/xlink">
<marker id="arrowGreen" orient="auto" overflow="visible"><path d="M2.8 0-1.4 2.4V-2.4Z" fill="#80C080"/></marker>
<marker id="arrowBlue" orient="auto" overflow="visible"><path d="M2.8 0-1.4 2.4V-2.4Z" fill="#9595FF"/></marker>

<rect width="640" height="320" fill="#FFF"/>
<g fill="none" stroke="#000" stroke-width="15">
<path d="M93 65.45 251 264.12" stroke="#80C080" marker-end="url(#arrowGreen)"/>
<path d="M268.8 65.45l-158 198.67" stroke="#9595FF" marker-end="url(#arrowBlue)"/>
<path id="xor" d="M175.12 53.82a14.5 14.5 0 1 0 .02 0Zm-.01 0v29m-14.5-14.5h29" stroke-width="2"/>
<use xlink:href="#xor" y="62"/>
<use xlink:href="#xor" y="142"/>
<path d="M39.17 44.12H600.83M39.17 252.78H600.83" stroke-width="2.16"/>
</g>
<g font-family="DejaVu Serif" font-size="40">
<g font-style="italic">
<text x="81" y="34">x</text>
<text x="256" y="34">y</text>
</g>
<text x="350" y="81">=</text>
<text x="350" y="143">=</text>
<text x="350" y="223">=</text>
<text x="41" y="83">1010</text>
<text x="218" y="83">0011</text>
<text x="218" y="145">0011</text>
<text x="215" y="225">1010</text>
<g fill="#F00">
<text x="416" y="83">1001 → <tspan font-style="italic">x</tspan></text>
<text x="42" y="145">1001</text>
<text x="42" y="225">1001</text>
</g>
<g fill="#008000">
<text x="414" y="145">1010 → <tspan font-style="italic">y</tspan></text>
<text x="215" y="306">1010</text>
</g>
<g fill="#00F">
<text x="417" y="225">0011 → <tspan font-style="italic">x</tspan></text>
<text x="43" y="306">0011</text>
</g>
</g>
</svg>